<svg xmlns="http://www.w3.org/2000/svg" viewBox="0 0 1100 640" width="1100" height="640" font-family="'Helvetica Neue',Arial,sans-serif" role="img" aria-labelledby="title desc">
  <title id="title">UniRoboSim architecture</title>
  <desc id="desc">Applications, FastSim, agents and custom frameworks use EasyAPI, MCP and RuntimeAPI. Portable contracts connect through the Provider, Session and World adapter interfaces to Isaac Lab, MuJoCo, PyBullet and future simulator backends.</desc>
  <defs>
    <marker id="arrow" markerWidth="8" markerHeight="8" refX="6" refY="3" orient="auto">
      <path d="M0,0 L0,6 L8,3 z" fill="#5a6a7e"/>
    </marker>
    <marker id="arrow-purple" markerWidth="8" markerHeight="8" refX="6" refY="3" orient="auto">
      <path d="M0,0 L0,6 L8,3 z" fill="#7c3aed"/>
    </marker>
    <filter id="shadow" x="-5%" y="-5%" width="110%" height="118%">
      <feDropShadow dx="0" dy="2" stdDeviation="3" flood-color="#00000018"/>
    </filter>
    <linearGradient id="grad-consumer" x1="0" y1="0" x2="0" y2="1">
      <stop offset="0%" stop-color="#eff6ff"/>
      <stop offset="100%" stop-color="#dbeafe"/>
    </linearGradient>
    <linearGradient id="grad-api" x1="0" y1="0" x2="0" y2="1">
      <stop offset="0%" stop-color="#f0fdf4"/>
      <stop offset="100%" stop-color="#dcfce7"/>
    </linearGradient>
    <linearGradient id="grad-core" x1="0" y1="0" x2="0" y2="1">
      <stop offset="0%" stop-color="#fffbeb"/>
      <stop offset="100%" stop-color="#fef3c7"/>
    </linearGradient>
    <linearGradient id="grad-spi" x1="0" y1="0" x2="0" y2="1">
      <stop offset="0%" stop-color="#faf5ff"/>
      <stop offset="100%" stop-color="#ede9fe"/>
    </linearGradient>
    <linearGradient id="grad-backend" x1="0" y1="0" x2="0" y2="1">
      <stop offset="0%" stop-color="#fff1f2"/>
      <stop offset="100%" stop-color="#ffe4e6"/>
    </linearGradient>
  </defs>

  <rect width="1100" height="760" fill="#f8fafc"/>

  <!-- Layer 1: Consumers -->
  <rect x="30" y="20" width="1040" height="100" rx="8" fill="url(#grad-consumer)" stroke="#3b82f6" stroke-width="1.5" filter="url(#shadow)"/>
  <rect x="30" y="20" width="1040" height="30" rx="8" fill="#3b82f6"/>
  <rect x="30" y="38" width="1040" height="12" fill="#3b82f6"/>
  <text x="550" y="40" text-anchor="middle" fill="white" font-size="13" font-weight="bold" letter-spacing="1">CONSUMERS</text>

  <g fill="white" stroke="#93c5fd" stroke-width="1.2">
    <rect x="55" y="61" width="230" height="44" rx="6"/>
    <rect x="305" y="61" width="230" height="44" rx="6"/>
    <rect x="555" y="61" width="230" height="44" rx="6"/>
    <rect x="805" y="61" width="240" height="44" rx="6"/>
  </g>
  <text x="170" y="79" text-anchor="middle" fill="#1e40af" font-size="12" font-weight="bold">Applications</text>
  <text x="170" y="96" text-anchor="middle" fill="#6b7280" font-size="10">Research and evaluation workflows</text>
  <text x="420" y="79" text-anchor="middle" fill="#1e40af" font-size="12" font-weight="bold">FastSim</text>
  <text x="420" y="96" text-anchor="middle" fill="#6b7280" font-size="10">Configurable simulation workflows</text>
  <text x="670" y="79" text-anchor="middle" fill="#1e40af" font-size="12" font-weight="bold">Agents / Policies</text>
  <text x="670" y="96" text-anchor="middle" fill="#6b7280" font-size="10">Agent and policy integration through MCP</text>
  <text x="925" y="79" text-anchor="middle" fill="#1e40af" font-size="12" font-weight="bold">Custom Frameworks</text>
  <text x="925" y="96" text-anchor="middle" fill="#6b7280" font-size="10">Domain runtimes and services</text>

  <line x1="550" y1="120" x2="550" y2="143" stroke="#5a6a7e" stroke-width="1.5" marker-end="url(#arrow)"/>

  <!-- Layer 2: Public APIs -->
  <rect x="30" y="145" width="1040" height="100" rx="8" fill="url(#grad-api)" stroke="#22c55e" stroke-width="1.5" filter="url(#shadow)"/>
  <rect x="30" y="145" width="1040" height="30" rx="8" fill="#16a34a"/>
  <rect x="30" y="163" width="1040" height="12" fill="#16a34a"/>
  <text x="550" y="165" text-anchor="middle" fill="white" font-size="13" font-weight="bold" letter-spacing="1">PUBLIC INTERFACES</text>

  <g fill="white" stroke="#86efac" stroke-width="1.2">
    <rect x="55" y="186" width="230" height="44" rx="6"/>
    <rect x="305" y="186" width="230" height="44" rx="6"/>
    <rect x="555" y="186" width="230" height="44" rx="6"/>
    <rect x="805" y="186" width="240" height="44" rx="6"/>
  </g>
  <text x="170" y="204" text-anchor="middle" fill="#15803d" font-size="12" font-weight="bold">EasyAPI</text>
  <text x="170" y="221" text-anchor="middle" fill="#6b7280" font-size="10">Create scenes and switch backends</text>
  <text x="420" y="204" text-anchor="middle" fill="#15803d" font-size="12" font-weight="bold">MCP</text>
  <text x="420" y="221" text-anchor="middle" fill="#6b7280" font-size="10">Agent access to evidence and simulation</text>
  <text x="670" y="204" text-anchor="middle" fill="#15803d" font-size="12" font-weight="bold">RuntimeAPI</text>
  <text x="670" y="221" text-anchor="middle" fill="#6b7280" font-size="10">Framework lifecycle and typed I/O</text>
  <text x="925" y="204" text-anchor="middle" fill="#15803d" font-size="12" font-weight="bold">Studio</text>
  <text x="925" y="221" text-anchor="middle" fill="#6b7280" font-size="10">Browser streaming and scene control</text>

  <line x1="550" y1="245" x2="550" y2="268" stroke="#5a6a7e" stroke-width="1.5" marker-end="url(#arrow)"/>

  <!-- Layer 3: Portable Core -->
  <rect x="30" y="270" width="1040" height="100" rx="8" fill="url(#grad-core)" stroke="#f59e0b" stroke-width="1.5" filter="url(#shadow)"/>
  <rect x="30" y="270" width="1040" height="30" rx="8" fill="#d97706"/>
  <rect x="30" y="288" width="1040" height="12" fill="#d97706"/>
  <text x="550" y="290" text-anchor="middle" fill="white" font-size="13" font-weight="bold" letter-spacing="1">PORTABLE CORE</text>

  <g fill="white" stroke="#fbbf24" stroke-width="1.2">
    <rect x="50" y="311" width="240" height="44" rx="7"/>
    <rect x="310" y="311" width="240" height="44" rx="7"/>
    <rect x="570" y="311" width="240" height="44" rx="7"/>
    <rect x="830" y="311" width="240" height="44" rx="7"/>
  </g>
  <text x="170" y="329" text-anchor="middle" fill="#b45309" font-size="12" font-weight="bold">Contracts &amp; Capabilities</text>
  <text x="430" y="329" text-anchor="middle" fill="#b45309" font-size="12" font-weight="bold">Scene &amp; Entities</text>
  <text x="690" y="329" text-anchor="middle" fill="#b45309" font-size="12" font-weight="bold">Assets</text>
  <text x="950" y="329" text-anchor="middle" fill="#b45309" font-size="12" font-weight="bold">Observability</text>
  <text x="170" y="346" text-anchor="middle" fill="#6b7280" font-size="10">Portable schemas and capabilities</text>
  <text x="430" y="346" text-anchor="middle" fill="#6b7280" font-size="10">Unified entities, state, and control</text>
  <text x="690" y="346" text-anchor="middle" fill="#6b7280" font-size="10">Asset selection and conversion</text>
  <text x="950" y="346" text-anchor="middle" fill="#6b7280" font-size="10">Sensors, debug traces, and evidence</text>

  <line x1="550" y1="370" x2="550" y2="393" stroke="#5a6a7e" stroke-width="1.5" marker-end="url(#arrow)"/>

  <!-- Layer 4: Adapter SPI -->
  <rect x="30" y="395" width="1040" height="100" rx="8" fill="url(#grad-spi)" stroke="#8b5cf6" stroke-width="1.5" filter="url(#shadow)"/>
  <rect x="30" y="395" width="1040" height="30" rx="8" fill="#7c3aed"/>
  <rect x="30" y="413" width="1040" height="12" fill="#7c3aed"/>
  <text x="550" y="415" text-anchor="middle" fill="white" font-size="13" font-weight="bold" letter-spacing="1">ADAPTER SPI</text>

  <g fill="white" stroke="#c4b5fd" stroke-width="1.2">
    <rect x="115" y="436" width="220" height="44" rx="7"/>
    <rect x="440" y="436" width="220" height="44" rx="7"/>
    <rect x="765" y="436" width="220" height="44" rx="7"/>
  </g>
  <text x="225" y="454" text-anchor="middle" fill="#6d28d9" font-size="12" font-weight="bold">Provider</text>
  <text x="225" y="471" text-anchor="middle" fill="#6b7280" font-size="10">Backend discovery and capabilities</text>
  <text x="550" y="454" text-anchor="middle" fill="#6d28d9" font-size="12" font-weight="bold">Session</text>
  <text x="550" y="471" text-anchor="middle" fill="#6b7280" font-size="10">Capability negotiation and ownership</text>
  <text x="875" y="454" text-anchor="middle" fill="#6d28d9" font-size="12" font-weight="bold">World / SceneControlWorld</text>
  <text x="875" y="471" text-anchor="middle" fill="#6b7280" font-size="10">Simulation lifecycle and typed I/O</text>
  <line x1="335" y1="458" x2="432" y2="458" stroke="#7c3aed" stroke-width="1.5" marker-end="url(#arrow-purple)"/>
  <line x1="660" y1="458" x2="757" y2="458" stroke="#7c3aed" stroke-width="1.5" marker-end="url(#arrow-purple)"/>

  <line x1="550" y1="495" x2="550" y2="518" stroke="#5a6a7e" stroke-width="1.5" marker-end="url(#arrow)"/>

  <!-- Layer 5: Backends -->
  <rect x="30" y="520" width="1040" height="100" rx="8" fill="url(#grad-backend)" stroke="#e11d48" stroke-width="1.5" filter="url(#shadow)"/>
  <rect x="30" y="520" width="1040" height="30" rx="8" fill="#e11d48"/>
  <rect x="30" y="538" width="1040" height="12" fill="#e11d48"/>
  <text x="550" y="540" text-anchor="middle" fill="white" font-size="13" font-weight="bold" letter-spacing="1">SIMULATOR BACKENDS</text>

  <g fill="white" stroke="#fda4af" stroke-width="1.2">
    <rect x="55" y="561" width="230" height="44" rx="7"/>
    <rect x="305" y="561" width="230" height="44" rx="7"/>
    <rect x="555" y="561" width="230" height="44" rx="7"/>
    <rect x="805" y="561" width="240" height="44" rx="7" stroke-dasharray="5 4"/>
  </g>
  <text x="170" y="579" text-anchor="middle" fill="#be123c" font-size="12" font-weight="bold">Isaac Lab 3.0</text>
  <text x="170" y="596" text-anchor="middle" fill="#6b7280" font-size="10">Full physics through Isaac Sim 6.0</text>
  <text x="420" y="579" text-anchor="middle" fill="#be123c" font-size="12" font-weight="bold">MuJoCo 3.11</text>
  <text x="420" y="596" text-anchor="middle" fill="#6b7280" font-size="10">Common rigid and articulation profile</text>
  <text x="670" y="579" text-anchor="middle" fill="#be123c" font-size="12" font-weight="bold">PyBullet 3.2.7</text>
  <text x="670" y="596" text-anchor="middle" fill="#6b7280" font-size="10">Common rigid and articulation profile</text>
  <text x="925" y="579" text-anchor="middle" fill="#be123c" font-size="12" font-weight="bold">Additional Simulator</text>
  <text x="925" y="596" text-anchor="middle" fill="#6b7280" font-size="10">Independent adapter package</text>
</svg>
